<mxfile host="app.diagrams.net" modified="2022-12-29T12:46:59.582Z" agent="5.0 (Macintosh; Intel Mac OS X 10_15_7) AppleWebKit/605.1.15 (KHTML, like Gecko) Version/15.6.1 Safari/605.1.15" etag="RsPuyNj6Rs80ymnHvi-f" version="20.6.0" type="github">
  <diagram id="HyVTwCY3tyknu1wiccSp" name="Page-1">
    <mxGraphModel dx="1532" dy="535" grid="1" gridSize="10" guides="1" tooltips="1" connect="1" arrows="1" fold="1" page="1" pageScale="1" pageWidth="827" pageHeight="1169" math="0" shadow="0">
      <root>
        <mxCell id="0" />
        <mxCell id="1" parent="0" />
        <mxCell id="iOdNaE5h2Jg4Ozsjyr-C-13" value="" style="endArrow=classic;html=1;rounded=0;fontColor=#000000;exitX=1;exitY=0.5;exitDx=0;exitDy=0;" parent="1" edge="1">
          <mxGeometry width="50" height="50" relative="1" as="geometry">
            <mxPoint x="401" y="1530.5" as="sourcePoint" />
            <mxPoint x="360" y="580" as="targetPoint" />
            <Array as="points">
              <mxPoint x="140" y="1530" />
              <mxPoint x="140" y="580" />
            </Array>
          </mxGeometry>
        </mxCell>
        <mxCell id="rTVSocvL9p-6lFkc4zfE-1" value="Communication Service" style="rounded=1;whiteSpace=wrap;html=1;fillColor=#e1d5e7;strokeColor=#9673a6;" parent="1" vertex="1">
          <mxGeometry x="300" y="64" width="120" height="60" as="geometry" />
        </mxCell>
        <mxCell id="rTVSocvL9p-6lFkc4zfE-3" value="&lt;font color=&quot;#000000&quot;&gt;Validate the request is&amp;nbsp;&lt;span style=&quot;caret-color: rgb(0, 0, 0);&quot;&gt;genuine and proper request&lt;br&gt;&lt;/span&gt;&lt;/font&gt;" style="rounded=0;whiteSpace=wrap;html=1;fillColor=#dae8fc;strokeColor=#6c8ebf;" parent="1" vertex="1">
          <mxGeometry x="300" y="174" width="120" height="60" as="geometry" />
        </mxCell>
        <mxCell id="rTVSocvL9p-6lFkc4zfE-4" value="&lt;div&gt;service_name != null&lt;/div&gt;&lt;div&gt;source_ip != null&amp;nbsp;&lt;/div&gt;&lt;div&gt;request_id != null&amp;nbsp;&lt;/div&gt;&lt;div&gt;communication_from_id != null&amp;nbsp;&lt;/div&gt;&lt;div&gt;communication_to_id != null&amp;nbsp;&lt;/div&gt;&lt;div&gt;message_details != null&amp;nbsp;&lt;/div&gt;&lt;div&gt;target_app_type != null&amp;nbsp;&lt;/div&gt;" style="text;html=1;strokeColor=none;fillColor=none;align=left;verticalAlign=middle;whiteSpace=wrap;rounded=0;fontColor=#000000;" parent="1" vertex="1">
          <mxGeometry x="425" y="130" width="210" height="140" as="geometry" />
        </mxCell>
        <mxCell id="rTVSocvL9p-6lFkc4zfE-23" value="" style="edgeStyle=orthogonalEdgeStyle;rounded=0;orthogonalLoop=1;jettySize=auto;html=1;fontColor=#000000;" parent="1" source="rTVSocvL9p-6lFkc4zfE-5" target="rTVSocvL9p-6lFkc4zfE-7" edge="1">
          <mxGeometry relative="1" as="geometry" />
        </mxCell>
        <mxCell id="rTVSocvL9p-6lFkc4zfE-5" value="Valid&lt;br&gt;&amp;nbsp;request" style="rhombus;whiteSpace=wrap;html=1;fillColor=#ffe6cc;strokeColor=#d79b00;" parent="1" vertex="1">
          <mxGeometry x="320" y="280" width="80" height="80" as="geometry" />
        </mxCell>
        <mxCell id="TEpofnCCsWP6tBPTdoD_-8" value="" style="edgeStyle=orthogonalEdgeStyle;rounded=0;orthogonalLoop=1;jettySize=auto;html=1;" edge="1" parent="1" source="rTVSocvL9p-6lFkc4zfE-7" target="rTVSocvL9p-6lFkc4zfE-11">
          <mxGeometry relative="1" as="geometry" />
        </mxCell>
        <mxCell id="rTVSocvL9p-6lFkc4zfE-7" value="Save request with status INITIATED" style="shape=cylinder3;whiteSpace=wrap;html=1;boundedLbl=1;backgroundOutline=1;size=15;fillColor=#d5e8d4;strokeColor=#82b366;" parent="1" vertex="1">
          <mxGeometry x="460" y="280" width="79" height="80" as="geometry" />
        </mxCell>
        <mxCell id="rTVSocvL9p-6lFkc4zfE-8" value="Save request with status ABORTED" style="shape=cylinder3;whiteSpace=wrap;html=1;boundedLbl=1;backgroundOutline=1;size=15;fillColor=#d5e8d4;strokeColor=#82b366;" parent="1" vertex="1">
          <mxGeometry x="182.75" y="282" width="79" height="80" as="geometry" />
        </mxCell>
        <mxCell id="rTVSocvL9p-6lFkc4zfE-9" value="Return error base response&lt;span style=&quot;caret-color: rgba(0, 0, 0, 0); color: rgba(0, 0, 0, 0); font-family: monospace; font-size: 0px; text-align: start;&quot;&gt;%3CmxGraphModel%3E%3Croot%3E%3CmxCell%20id%3D%220%22%2F%3E%3CmxCell%20id%3D%221%22%20parent%3D%220%22%2F%3E%3CmxCell%20id%3D%222%22%20value%3D%22Save%20request%20with%20status%20initiated%22%20style%3D%22shape%3Dcylinder3%3BwhiteSpace%3Dwrap%3Bhtml%3D1%3BboundedLbl%3D1%3BbackgroundOutline%3D1%3Bsize%3D15%3BfontColor%3D%23000000%3B%22%20vertex%3D%221%22%20parent%3D%221%22%3E%3CmxGeometry%20x%3D%22491%22%20y%3D%22280%22%20width%3D%2279%22%20height%3D%2280%22%20as%3D%22geometry%22%2F%3E%3C%2FmxCell%3E%3C%2Froot%3E%3C%2FmxGraphModel%3E&lt;/span&gt;" style="rounded=1;whiteSpace=wrap;html=1;fillColor=#e1d5e7;strokeColor=#9673a6;" parent="1" vertex="1">
          <mxGeometry y="292" width="120" height="60" as="geometry" />
        </mxCell>
        <mxCell id="rTVSocvL9p-6lFkc4zfE-11" value="Return success base response&lt;span style=&quot;caret-color: rgba(0, 0, 0, 0); color: rgba(0, 0, 0, 0); font-family: monospace; font-size: 0px; text-align: start;&quot;&gt;%3CmxGraphModel%3E%3Croot%3E%3CmxCell%20id%3D%220%22%2F%3E%3CmxCell%20id%3D%221%22%20parent%3D%220%22%2F%3E%3CmxCell%20id%3D%222%22%20value%3D%22Save%20request%20with%20status%20initiated%22%20style%3D%22shape%3Dcylinder3%3BwhiteSpace%3Dwrap%3Bhtml%3D1%3BboundedLbl%3D1%3BbackgroundOutline%3D1%3Bsize%3D15%3BfontColor%3D%23000000%3B%22%20vertex%3D%221%22%20parent%3D%221%22%3E%3CmxGeometry%20x%3D%22491%22%20y%3D%22280%22%20width%3D%2279%22%20height%3D%2280%22%20as%3D%22geometry%22%2F%3E%3C%2FmxCell%3E%3C%2Froot%3E%3C%2FmxGraphModel%3E&lt;/span&gt;" style="rounded=1;whiteSpace=wrap;html=1;fillColor=#e1d5e7;strokeColor=#9673a6;" parent="1" vertex="1">
          <mxGeometry x="600" y="290" width="120" height="60" as="geometry" />
        </mxCell>
        <mxCell id="rTVSocvL9p-6lFkc4zfE-12" value="&lt;div style=&quot;text-align: start; background-color: rgb(255, 255, 254); line-height: 18px;&quot;&gt;&lt;div&gt;{&lt;/div&gt;&lt;div&gt;    &lt;span style=&quot;color: rgb(163, 21, 21);&quot;&gt;&quot;es&quot;&lt;/span&gt;: &lt;span style=&quot;color: rgb(9, 134, 88);&quot;&gt;0&lt;/span&gt;,&lt;/div&gt;&lt;div&gt;    &lt;span style=&quot;color: rgb(163, 21, 21);&quot;&gt;&quot;message&quot;&lt;/span&gt;: &lt;span style=&quot;color: rgb(4, 81, 165);&quot;&gt;&quot;Success&quot;&lt;/span&gt;,&lt;/div&gt;&lt;div&gt;    &lt;span style=&quot;color: rgb(163, 21, 21);&quot;&gt;&quot;time&quot;&lt;/span&gt;: &lt;span style=&quot;color: rgb(9, 134, 88);&quot;&gt;1671521069487&lt;/span&gt;,&lt;/div&gt;&lt;div&gt;    &lt;span style=&quot;color: rgb(163, 21, 21);&quot;&gt;&quot;status_code&quot;&lt;/span&gt;: &lt;span style=&quot;color: rgb(9, 134, 88);&quot;&gt;200&lt;/span&gt;,&lt;/div&gt;&lt;div&gt;    &lt;span style=&quot;color: rgb(163, 21, 21);&quot;&gt;&quot;reference_id&quot;&lt;/span&gt;: &lt;span style=&quot;color: rgb(4, 81, 165);&quot;&gt;&quot;6757607&quot;&lt;/span&gt;&lt;/div&gt;&lt;div&gt;}&lt;/div&gt;&lt;/div&gt;" style="text;html=1;strokeColor=none;fillColor=none;align=center;verticalAlign=middle;whiteSpace=wrap;rounded=0;fontColor=#000000;" parent="1" vertex="1">
          <mxGeometry x="710" y="262" width="170" height="120" as="geometry" />
        </mxCell>
        <mxCell id="rTVSocvL9p-6lFkc4zfE-13" value="&lt;div style=&quot;text-align: start; background-color: rgb(255, 255, 254); line-height: 18px;&quot;&gt;&lt;div&gt;{&lt;/div&gt;&lt;div&gt;    &lt;span style=&quot;color: rgb(163, 21, 21);&quot;&gt;&quot;es&quot;&lt;/span&gt;: &lt;span style=&quot;color: rgb(9, 134, 88);&quot;&gt;0&lt;/span&gt;,&lt;/div&gt;&lt;div&gt;    &lt;span style=&quot;color: rgb(163, 21, 21);&quot;&gt;&quot;message&quot;&lt;/span&gt;: &lt;span style=&quot;color: rgb(4, 81, 165);&quot;&gt;&quot;&lt;/span&gt;&lt;span style=&quot;caret-color: rgb(4, 81, 165); color: rgb(4, 81, 165);&quot;&gt;Invalid details&lt;/span&gt;&lt;span style=&quot;color: rgb(4, 81, 165);&quot;&gt;&quot;&lt;/span&gt;,&lt;/div&gt;&lt;div&gt;    &lt;span style=&quot;color: rgb(163, 21, 21);&quot;&gt;&quot;time&quot;&lt;/span&gt;: &lt;span style=&quot;color: rgb(9, 134, 88);&quot;&gt;1671521069487&lt;/span&gt;,&lt;/div&gt;&lt;div&gt;    &lt;span style=&quot;color: rgb(163, 21, 21);&quot;&gt;&quot;status_code&quot;&lt;/span&gt;: &lt;span style=&quot;color: rgb(9, 134, 88);&quot;&gt;200&lt;/span&gt;,&lt;/div&gt;&lt;div&gt;    &lt;span style=&quot;color: rgb(163, 21, 21);&quot;&gt;&quot;reference_id&quot;&lt;/span&gt;: &lt;span style=&quot;color: rgb(4, 81, 165);&quot;&gt;&quot;6757607&quot;&lt;/span&gt;&lt;/div&gt;&lt;div&gt;}&lt;/div&gt;&lt;/div&gt;" style="text;html=1;strokeColor=none;fillColor=none;align=center;verticalAlign=middle;whiteSpace=wrap;rounded=0;fontColor=#000000;" parent="1" vertex="1">
          <mxGeometry x="-160" y="260" width="170" height="120" as="geometry" />
        </mxCell>
        <mxCell id="rTVSocvL9p-6lFkc4zfE-14" value="Collection: &lt;font color=&quot;#ea6b66&quot;&gt;central_communication_request&lt;/font&gt;&lt;br&gt;Operation: &lt;font color=&quot;#ea6b66&quot;&gt;Write&lt;/font&gt;" style="text;html=1;strokeColor=none;fillColor=none;align=left;verticalAlign=middle;whiteSpace=wrap;rounded=0;fontColor=#000000;" parent="1" vertex="1">
          <mxGeometry x="100" y="362" width="250.5" height="30" as="geometry" />
        </mxCell>
        <mxCell id="rTVSocvL9p-6lFkc4zfE-15" value="Collection: &lt;font color=&quot;#ea6b66&quot;&gt;central_communication_request&lt;/font&gt;&lt;br&gt;Operation: &lt;font color=&quot;#ea6b66&quot;&gt;Write&lt;/font&gt;&lt;span style=&quot;caret-color: rgba(0, 0, 0, 0); color: rgba(0, 0, 0, 0); font-family: monospace; font-size: 0px;&quot;&gt;%3CmxGraphModel%3E%3Croot%3E%3CmxCell%20id%3D%220%22%2F%3E%3CmxCell%20id%3D%221%22%20parent%3D%220%22%2F%3E%3CmxCell%20id%3D%222%22%20value%3D%22%22%20style%3D%22endArrow%3Dclassic%3Bhtml%3D1%3Brounded%3D0%3BfontColor%3D%23000000%3BentryX%3D0%3BentryY%3D0.5%3BentryDx%3D0%3BentryDy%3D0%3BentryPerimeter%3D0%3BexitX%3D1%3BexitY%3D0.5%3BexitDx%3D0%3BexitDy%3D0%3B%22%20edge%3D%221%22%20parent%3D%221%22%3E%3CmxGeometry%20width%3D%2250%22%20height%3D%2250%22%20relative%3D%221%22%20as%3D%22geometry%22%3E%3CmxPoint%20x%3D%22400%22%20y%3D%22320%22%20as%3D%22sourcePoint%22%2F%3E%3CmxPoint%20x%3D%22460%22%20y%3D%22320%22%20as%3D%22targetPoint%22%2F%3E%3C%2FmxGeometry%3E%3C%2FmxCell%3E%3C%2Froot%3E%3C%2FmxGraphModel%3E&lt;/span&gt;" style="text;html=1;strokeColor=none;fillColor=none;align=left;verticalAlign=middle;whiteSpace=wrap;rounded=0;fontColor=#000000;" parent="1" vertex="1">
          <mxGeometry x="414" y="362" width="250.5" height="30" as="geometry" />
        </mxCell>
        <mxCell id="rTVSocvL9p-6lFkc4zfE-17" value="" style="endArrow=classic;html=1;rounded=0;fontColor=#000000;entryX=0;entryY=0.5;entryDx=0;entryDy=0;entryPerimeter=0;exitX=1;exitY=0.5;exitDx=0;exitDy=0;" parent="1" source="rTVSocvL9p-6lFkc4zfE-5" target="rTVSocvL9p-6lFkc4zfE-7" edge="1">
          <mxGeometry width="50" height="50" relative="1" as="geometry">
            <mxPoint x="360" y="240" as="sourcePoint" />
            <mxPoint x="410" y="190" as="targetPoint" />
          </mxGeometry>
        </mxCell>
        <mxCell id="rTVSocvL9p-6lFkc4zfE-18" value="" style="endArrow=classic;html=1;rounded=0;fontColor=#000000;exitX=0;exitY=0.5;exitDx=0;exitDy=0;" parent="1" source="rTVSocvL9p-6lFkc4zfE-5" edge="1">
          <mxGeometry width="50" height="50" relative="1" as="geometry">
            <mxPoint x="360" y="240" as="sourcePoint" />
            <mxPoint x="260" y="320" as="targetPoint" />
          </mxGeometry>
        </mxCell>
        <mxCell id="rTVSocvL9p-6lFkc4zfE-20" value="" style="endArrow=classic;html=1;rounded=0;fontColor=#000000;exitX=0.5;exitY=1;exitDx=0;exitDy=0;" parent="1" source="rTVSocvL9p-6lFkc4zfE-1" target="rTVSocvL9p-6lFkc4zfE-3" edge="1">
          <mxGeometry width="50" height="50" relative="1" as="geometry">
            <mxPoint x="360" y="254" as="sourcePoint" />
            <mxPoint x="410" y="204" as="targetPoint" />
          </mxGeometry>
        </mxCell>
        <mxCell id="rTVSocvL9p-6lFkc4zfE-22" value="Api endpoint: central/email/send" style="text;html=1;strokeColor=none;fillColor=none;align=center;verticalAlign=middle;whiteSpace=wrap;rounded=0;fontColor=#000000;" parent="1" vertex="1">
          <mxGeometry x="270" y="34" width="210" height="30" as="geometry" />
        </mxCell>
        <mxCell id="rTVSocvL9p-6lFkc4zfE-24" value="&lt;font style=&quot;font-size: 10px;&quot;&gt;Yes&lt;/font&gt;" style="text;html=1;align=center;verticalAlign=middle;resizable=0;points=[];autosize=1;strokeColor=none;fillColor=none;fontColor=#000000;" parent="1" vertex="1">
          <mxGeometry x="400" y="295" width="40" height="30" as="geometry" />
        </mxCell>
        <mxCell id="rTVSocvL9p-6lFkc4zfE-25" value="&lt;font style=&quot;font-size: 10px;&quot;&gt;No&lt;/font&gt;" style="text;html=1;align=center;verticalAlign=middle;resizable=0;points=[];autosize=1;strokeColor=none;fillColor=none;fontColor=#000000;" parent="1" vertex="1">
          <mxGeometry x="270" y="295" width="40" height="30" as="geometry" />
        </mxCell>
        <mxCell id="TEpofnCCsWP6tBPTdoD_-5" value="" style="edgeStyle=orthogonalEdgeStyle;rounded=0;orthogonalLoop=1;jettySize=auto;html=1;" edge="1" parent="1" source="rTVSocvL9p-6lFkc4zfE-26" target="rTVSocvL9p-6lFkc4zfE-28">
          <mxGeometry relative="1" as="geometry" />
        </mxCell>
        <mxCell id="rTVSocvL9p-6lFkc4zfE-26" value="addNoticeDetails in the request" style="rounded=0;whiteSpace=wrap;html=1;fillColor=#dae8fc;strokeColor=#6c8ebf;" parent="1" vertex="1">
          <mxGeometry x="310" y="410" width="100" height="50" as="geometry" />
        </mxCell>
        <mxCell id="rTVSocvL9p-6lFkc4zfE-27" value="" style="endArrow=classic;html=1;rounded=0;fontColor=#000000;exitX=0.5;exitY=1;exitDx=0;exitDy=0;" parent="1" edge="1">
          <mxGeometry width="50" height="50" relative="1" as="geometry">
            <mxPoint x="359.5" y="662" as="sourcePoint" />
            <mxPoint x="359.5" y="712" as="targetPoint" />
          </mxGeometry>
        </mxCell>
        <mxCell id="rTVSocvL9p-6lFkc4zfE-28" value="getEmailManager" style="rounded=0;whiteSpace=wrap;html=1;fillColor=#dae8fc;strokeColor=#6c8ebf;" parent="1" vertex="1">
          <mxGeometry x="310" y="511" width="100" height="50" as="geometry" />
        </mxCell>
        <mxCell id="rTVSocvL9p-6lFkc4zfE-29" value="NETCORE&lt;br&gt;SES&lt;br&gt;SENGRID" style="text;html=1;strokeColor=none;fillColor=none;align=center;verticalAlign=middle;whiteSpace=wrap;rounded=0;fontColor=#000000;" parent="1" vertex="1">
          <mxGeometry x="414" y="521" width="60" height="30" as="geometry" />
        </mxCell>
        <mxCell id="rTVSocvL9p-6lFkc4zfE-30" value="Email Provider&lt;br&gt;Mappings" style="rounded=0;whiteSpace=wrap;html=1;fillColor=#dae8fc;strokeColor=#6c8ebf;" parent="1" vertex="1">
          <mxGeometry x="310" y="609" width="100" height="58" as="geometry" />
        </mxCell>
        <mxCell id="rTVSocvL9p-6lFkc4zfE-32" value="" style="endArrow=classic;html=1;rounded=0;fontColor=#000000;exitX=0.5;exitY=1;exitDx=0;exitDy=0;" parent="1" edge="1">
          <mxGeometry width="50" height="50" relative="1" as="geometry">
            <mxPoint x="359.5" y="460" as="sourcePoint" />
            <mxPoint x="359.5" y="510" as="targetPoint" />
          </mxGeometry>
        </mxCell>
        <mxCell id="rTVSocvL9p-6lFkc4zfE-33" value="" style="endArrow=classic;html=1;rounded=0;fontColor=#000000;exitX=0.5;exitY=1;exitDx=0;exitDy=0;" parent="1" edge="1">
          <mxGeometry width="50" height="50" relative="1" as="geometry">
            <mxPoint x="359.5" y="561" as="sourcePoint" />
            <mxPoint x="359.5" y="611" as="targetPoint" />
          </mxGeometry>
        </mxCell>
        <mxCell id="rTVSocvL9p-6lFkc4zfE-34" value="Redis" style="shape=trapezoid;perimeter=trapezoidPerimeter;whiteSpace=wrap;html=1;fixedSize=1;fillColor=#f8cecc;strokeColor=#b85450;" parent="1" vertex="1">
          <mxGeometry x="627.25" y="614" width="100.75" height="48" as="geometry" />
        </mxCell>
        <mxCell id="rTVSocvL9p-6lFkc4zfE-35" value="&lt;div style=&quot;text-align: left;&quot;&gt;&lt;font style=&quot;font-size: 10px;&quot;&gt;&lt;font color=&quot;#000000&quot;&gt;Key&lt;/font&gt;: &amp;nbsp;CENTRAL_EMAIL_MAPPING&lt;/font&gt;&lt;/div&gt;" style="text;html=1;strokeColor=none;fillColor=none;align=center;verticalAlign=middle;whiteSpace=wrap;rounded=0;fontColor=#EA6B66;" parent="1" vertex="1">
          <mxGeometry x="429.25" y="612" width="210.75" height="30" as="geometry" />
        </mxCell>
        <mxCell id="rTVSocvL9p-6lFkc4zfE-36" value="&lt;font style=&quot;font-size: 11px;&quot;&gt;If&amp;nbsp;&lt;br&gt;value&lt;br&gt;present&lt;/font&gt;" style="rhombus;whiteSpace=wrap;html=1;fillColor=#ffe6cc;strokeColor=#d79b00;" parent="1" vertex="1">
          <mxGeometry x="640" y="820" width="80" height="80" as="geometry" />
        </mxCell>
        <mxCell id="rTVSocvL9p-6lFkc4zfE-38" value="" style="endArrow=classic;html=1;rounded=0;fontColor=#000000;exitX=1;exitY=0.5;exitDx=0;exitDy=0;" parent="1" edge="1">
          <mxGeometry width="50" height="50" relative="1" as="geometry">
            <mxPoint x="411" y="640" as="sourcePoint" />
            <mxPoint x="640" y="640" as="targetPoint" />
          </mxGeometry>
        </mxCell>
        <mxCell id="rTVSocvL9p-6lFkc4zfE-39" value="&lt;font style=&quot;font-size: 10px;&quot;&gt;Operation: &lt;span style=&quot;caret-color: rgb(234, 107, 102);&quot;&gt;&lt;font color=&quot;#00cc00&quot;&gt;Read&lt;/font&gt;&lt;/span&gt;&lt;/font&gt;" style="text;html=1;strokeColor=none;fillColor=none;align=left;verticalAlign=middle;whiteSpace=wrap;rounded=0;fontColor=#000000;" parent="1" vertex="1">
          <mxGeometry x="484.25" y="632" width="110" height="30" as="geometry" />
        </mxCell>
        <mxCell id="rTVSocvL9p-6lFkc4zfE-42" value="&lt;font style=&quot;font-size: 10px;&quot;&gt;Operation: &lt;font color=&quot;#ea6b66&quot;&gt;&lt;span style=&quot;caret-color: rgb(234, 107, 102);&quot;&gt;Write&lt;/span&gt;&lt;/font&gt;&lt;/font&gt;" style="text;html=1;strokeColor=none;fillColor=none;align=left;verticalAlign=middle;whiteSpace=wrap;rounded=0;fontColor=#000000;" parent="1" vertex="1">
          <mxGeometry x="766.5" y="632" width="110" height="30" as="geometry" />
        </mxCell>
        <mxCell id="rTVSocvL9p-6lFkc4zfE-43" value="&lt;font style=&quot;font-size: 10px;&quot;&gt;Yes&lt;/font&gt;" style="text;html=1;align=center;verticalAlign=middle;resizable=0;points=[];autosize=1;strokeColor=none;fillColor=none;fontColor=#000000;" parent="1" vertex="1">
          <mxGeometry x="578.75" y="830" width="40" height="30" as="geometry" />
        </mxCell>
        <mxCell id="rTVSocvL9p-6lFkc4zfE-45" value="&lt;font style=&quot;font-size: 10px;&quot;&gt;No&lt;/font&gt;" style="text;html=1;align=center;verticalAlign=middle;resizable=0;points=[];autosize=1;strokeColor=none;fillColor=none;fontColor=#000000;" parent="1" vertex="1">
          <mxGeometry x="723.5" y="835" width="40" height="30" as="geometry" />
        </mxCell>
        <mxCell id="rTVSocvL9p-6lFkc4zfE-47" value="templateId&lt;br&gt;not&lt;br&gt;Empty" style="rhombus;whiteSpace=wrap;html=1;fillColor=#ffe6cc;strokeColor=#d79b00;" parent="1" vertex="1">
          <mxGeometry x="313.75" y="860" width="97" height="97" as="geometry" />
        </mxCell>
        <mxCell id="rTVSocvL9p-6lFkc4zfE-48" value="" style="endArrow=classic;html=1;rounded=0;fontColor=#000000;entryX=0;entryY=0.5;entryDx=0;entryDy=0;entryPerimeter=0;exitX=1;exitY=0.5;exitDx=0;exitDy=0;" parent="1" edge="1">
          <mxGeometry width="50" height="50" relative="1" as="geometry">
            <mxPoint x="540" y="319.5" as="sourcePoint" />
            <mxPoint x="600" y="319.5" as="targetPoint" />
          </mxGeometry>
        </mxCell>
        <mxCell id="rTVSocvL9p-6lFkc4zfE-50" value="" style="endArrow=classic;html=1;rounded=0;fontColor=#000000;exitX=0;exitY=0.5;exitDx=0;exitDy=0;" parent="1" edge="1">
          <mxGeometry width="50" height="50" relative="1" as="geometry">
            <mxPoint x="181" y="321.5" as="sourcePoint" />
            <mxPoint x="121" y="321.5" as="targetPoint" />
          </mxGeometry>
        </mxCell>
        <mxCell id="rTVSocvL9p-6lFkc4zfE-51" value="sendGeneralEmail" style="rounded=0;whiteSpace=wrap;html=1;fillColor=#dae8fc;strokeColor=#6c8ebf;" parent="1" vertex="1">
          <mxGeometry x="193.5" y="1045" width="100" height="50" as="geometry" />
        </mxCell>
        <mxCell id="rTVSocvL9p-6lFkc4zfE-52" value="sendEmail" style="rounded=0;whiteSpace=wrap;html=1;fillColor=#dae8fc;strokeColor=#6c8ebf;" parent="1" vertex="1">
          <mxGeometry x="422.75" y="1046" width="100" height="50" as="geometry" />
        </mxCell>
        <mxCell id="rTVSocvL9p-6lFkc4zfE-54" value="&lt;font color=&quot;#000000&quot;&gt;error/exception&amp;nbsp;occurred while processing email request&lt;br&gt;&lt;/font&gt;" style="rounded=0;whiteSpace=wrap;html=1;fillColor=#dae8fc;strokeColor=#6c8ebf;" parent="1" vertex="1">
          <mxGeometry x="-190.5" y="677" width="130" height="65" as="geometry" />
        </mxCell>
        <mxCell id="rTVSocvL9p-6lFkc4zfE-55" value="Save request with status ABORTED" style="shape=cylinder3;whiteSpace=wrap;html=1;boundedLbl=1;backgroundOutline=1;size=15;fillColor=#d5e8d4;strokeColor=#82b366;" parent="1" vertex="1">
          <mxGeometry x="-164" y="793" width="79" height="80" as="geometry" />
        </mxCell>
        <mxCell id="rTVSocvL9p-6lFkc4zfE-56" value="End of process" style="rounded=1;whiteSpace=wrap;html=1;fillColor=#e1d5e7;strokeColor=#9673a6;" parent="1" vertex="1">
          <mxGeometry x="-184.5" y="924" width="120" height="60" as="geometry" />
        </mxCell>
        <mxCell id="rTVSocvL9p-6lFkc4zfE-58" value="" style="endArrow=classic;html=1;rounded=0;fontColor=#000000;exitX=0.5;exitY=1;exitDx=0;exitDy=0;" parent="1" edge="1">
          <mxGeometry width="50" height="50" relative="1" as="geometry">
            <mxPoint x="-125" y="873" as="sourcePoint" />
            <mxPoint x="-125" y="923" as="targetPoint" />
          </mxGeometry>
        </mxCell>
        <mxCell id="rTVSocvL9p-6lFkc4zfE-59" value="" style="endArrow=classic;html=1;rounded=0;fontColor=#000000;exitX=0.5;exitY=1;exitDx=0;exitDy=0;" parent="1" edge="1">
          <mxGeometry width="50" height="50" relative="1" as="geometry">
            <mxPoint x="-125" y="742" as="sourcePoint" />
            <mxPoint x="-125" y="792" as="targetPoint" />
          </mxGeometry>
        </mxCell>
        <mxCell id="rTVSocvL9p-6lFkc4zfE-62" value="" style="endArrow=classic;html=1;rounded=0;fontColor=#000000;exitX=0;exitY=0.5;exitDx=0;exitDy=0;entryX=0.5;entryY=0;entryDx=0;entryDy=0;" parent="1" target="rTVSocvL9p-6lFkc4zfE-51" edge="1">
          <mxGeometry width="50" height="50" relative="1" as="geometry">
            <mxPoint x="312.75" y="909" as="sourcePoint" />
            <mxPoint x="252.75" y="909" as="targetPoint" />
            <Array as="points">
              <mxPoint x="242.75" y="909" />
            </Array>
          </mxGeometry>
        </mxCell>
        <mxCell id="rTVSocvL9p-6lFkc4zfE-63" value="" style="endArrow=classic;html=1;rounded=0;fontColor=#000000;exitX=1;exitY=0.5;exitDx=0;exitDy=0;entryX=0.5;entryY=0;entryDx=0;entryDy=0;" parent="1" target="rTVSocvL9p-6lFkc4zfE-52" edge="1">
          <mxGeometry width="50" height="50" relative="1" as="geometry">
            <mxPoint x="410.75" y="909.5" as="sourcePoint" />
            <mxPoint x="432.75" y="957" as="targetPoint" />
            <Array as="points">
              <mxPoint x="472.75" y="909" />
            </Array>
          </mxGeometry>
        </mxCell>
        <mxCell id="rTVSocvL9p-6lFkc4zfE-64" value="&lt;font style=&quot;font-size: 10px;&quot;&gt;Yes&lt;/font&gt;" style="text;html=1;align=center;verticalAlign=middle;resizable=0;points=[];autosize=1;strokeColor=none;fillColor=none;fontColor=#000000;" parent="1" vertex="1">
          <mxGeometry x="416.75" y="889" width="40" height="30" as="geometry" />
        </mxCell>
        <mxCell id="rTVSocvL9p-6lFkc4zfE-65" value="&lt;font style=&quot;font-size: 10px;&quot;&gt;No&lt;/font&gt;" style="text;html=1;align=center;verticalAlign=middle;resizable=0;points=[];autosize=1;strokeColor=none;fillColor=none;fontColor=#000000;" parent="1" vertex="1">
          <mxGeometry x="264.5" y="888" width="40" height="30" as="geometry" />
        </mxCell>
        <mxCell id="rTVSocvL9p-6lFkc4zfE-70" value="Collection: &lt;font color=&quot;#ea6b66&quot;&gt;central_communication_request&lt;/font&gt;&lt;br&gt;Operation: &lt;font color=&quot;#ea6b66&quot;&gt;Write&lt;/font&gt;" style="text;html=1;strokeColor=none;fillColor=none;align=left;verticalAlign=middle;whiteSpace=wrap;rounded=0;fontColor=#000000;" parent="1" vertex="1">
          <mxGeometry x="-311" y="875" width="250.5" height="30" as="geometry" />
        </mxCell>
        <mxCell id="rTVSocvL9p-6lFkc4zfE-71" value="" style="endArrow=none;dashed=1;html=1;rounded=0;fontSize=10;fontColor=#000000;" parent="1" edge="1">
          <mxGeometry width="50" height="50" relative="1" as="geometry">
            <mxPoint x="360" y="400" as="sourcePoint" />
            <mxPoint x="361" y="360" as="targetPoint" />
          </mxGeometry>
        </mxCell>
        <mxCell id="rTVSocvL9p-6lFkc4zfE-72" value="Build an Email Request to send an email" style="rounded=0;whiteSpace=wrap;html=1;fillColor=#dae8fc;strokeColor=#6c8ebf;" parent="1" vertex="1">
          <mxGeometry x="293.5" y="1198" width="132" height="70" as="geometry" />
        </mxCell>
        <mxCell id="rTVSocvL9p-6lFkc4zfE-73" value="&lt;font style=&quot;font-size: 11px;&quot;&gt;Save request with status COMPLETED&lt;/font&gt;" style="shape=cylinder3;whiteSpace=wrap;html=1;boundedLbl=1;backgroundOutline=1;size=15;fillColor=#d5e8d4;strokeColor=#82b366;" parent="1" vertex="1">
          <mxGeometry x="321.5" y="1608" width="79" height="80" as="geometry" />
        </mxCell>
        <mxCell id="rTVSocvL9p-6lFkc4zfE-74" value="Collection: &lt;font color=&quot;#ea6b66&quot;&gt;central_communication_request&lt;/font&gt;&lt;br&gt;Operation: &lt;font color=&quot;#ea6b66&quot;&gt;Write&lt;/font&gt;&lt;span style=&quot;caret-color: rgba(0, 0, 0, 0); color: rgba(0, 0, 0, 0); font-family: monospace; font-size: 0px;&quot;&gt;%3CmxGraphModel%3E%3Croot%3E%3CmxCell%20id%3D%220%22%2F%3E%3CmxCell%20id%3D%221%22%20parent%3D%220%22%2F%3E%3CmxCell%20id%3D%222%22%20value%3D%22%22%20style%3D%22endArrow%3Dclassic%3Bhtml%3D1%3Brounded%3D0%3BfontColor%3D%23000000%3BentryX%3D0%3BentryY%3D0.5%3BentryDx%3D0%3BentryDy%3D0%3BentryPerimeter%3D0%3BexitX%3D1%3BexitY%3D0.5%3BexitDx%3D0%3BexitDy%3D0%3B%22%20edge%3D%221%22%20parent%3D%221%22%3E%3CmxGeometry%20width%3D%2250%22%20height%3D%2250%22%20relative%3D%221%22%20as%3D%22geometry%22%3E%3CmxPoint%20x%3D%22400%22%20y%3D%22320%22%20as%3D%22sourcePoint%22%2F%3E%3CmxPoint%20x%3D%22460%22%20y%3D%22320%22%20as%3D%22targetPoint%22%2F%3E%3C%2FmxGeometry%3E%3C%2FmxCell%3E%3C%2Froot%3E%3C%2FmxGraphModel%3E&lt;/span&gt;" style="text;html=1;strokeColor=none;fillColor=none;align=left;verticalAlign=middle;whiteSpace=wrap;rounded=0;fontColor=#000000;" parent="1" vertex="1">
          <mxGeometry x="400.5" y="1628" width="250.5" height="30" as="geometry" />
        </mxCell>
        <mxCell id="rTVSocvL9p-6lFkc4zfE-75" value="" style="endArrow=classic;html=1;rounded=0;fontColor=#000000;exitX=0.5;exitY=1;exitDx=0;exitDy=0;" parent="1" edge="1">
          <mxGeometry width="50" height="50" relative="1" as="geometry">
            <mxPoint x="362.5" y="1268" as="sourcePoint" />
            <mxPoint x="362.5" y="1318" as="targetPoint" />
          </mxGeometry>
        </mxCell>
        <mxCell id="rTVSocvL9p-6lFkc4zfE-76" value="End of process" style="rounded=1;whiteSpace=wrap;html=1;fillColor=#e1d5e7;strokeColor=#9673a6;" parent="1" vertex="1">
          <mxGeometry x="300" y="1741" width="120" height="60" as="geometry" />
        </mxCell>
        <mxCell id="rTVSocvL9p-6lFkc4zfE-77" value="" style="endArrow=classic;html=1;rounded=0;fontColor=#000000;exitX=0.5;exitY=1;exitDx=0;exitDy=0;" parent="1" edge="1">
          <mxGeometry width="50" height="50" relative="1" as="geometry">
            <mxPoint x="360.5" y="1688" as="sourcePoint" />
            <mxPoint x="360.5" y="1738" as="targetPoint" />
          </mxGeometry>
        </mxCell>
        <mxCell id="rTVSocvL9p-6lFkc4zfE-78" value="Remove suppressed emails in request" style="rounded=0;whiteSpace=wrap;html=1;fillColor=#dae8fc;strokeColor=#6c8ebf;" parent="1" vertex="1">
          <mxGeometry x="297" y="1318" width="132" height="70" as="geometry" />
        </mxCell>
        <mxCell id="rTVSocvL9p-6lFkc4zfE-79" value="Get suppressed email list" style="shape=cylinder3;whiteSpace=wrap;html=1;boundedLbl=1;backgroundOutline=1;size=15;fillColor=#d5e8d4;strokeColor=#82b366;" parent="1" vertex="1">
          <mxGeometry x="554" y="1308" width="79" height="80" as="geometry" />
        </mxCell>
        <mxCell id="rTVSocvL9p-6lFkc4zfE-80" value="Collection: &lt;font color=&quot;#ea6b66&quot;&gt;mg_email_suppression&lt;/font&gt;&lt;br&gt;Operation:&amp;nbsp;&lt;span style=&quot;caret-color: rgb(234, 107, 102); color: rgb(0, 204, 0); font-size: 10px;&quot;&gt;Read&lt;/span&gt;&lt;span style=&quot;caret-color: rgba(0, 0, 0, 0); color: rgba(0, 0, 0, 0); font-family: monospace; font-size: 0px;&quot;&gt;%3CmxGraphModel%3E%3Croot%3E%3CmxCell%20id%3D%220%22%2F%3E%3CmxCell%20id%3D%221%22%20parent%3D%220%22%2F%3E%3CmxCell%20id%3D%222%22%20value%3D%22%22%20style%3D%22endArrow%3Dclassic%3Bhtml%3D1%3Brounded%3D0%3BfontColor%3D%23000000%3BentryX%3D0%3BentryY%3D0.5%3BentryDx%3D0%3BentryDy%3D0%3BentryPerimeter%3D0%3BexitX%3D1%3BexitY%3D0.5%3BexitDx%3D0%3BexitDy%3D0%3B%22%20edge%3D%221%22%20parent%3D%221%22%3E%3CmxGeometry%20width%3D%2250%22%20height%3D%2250%22%20relative%3D%221%22%20as%3D%22geometry%22%3E%3CmxPoint%20x%3D%22400%22%20y%3D%22320%22%20as%3D%22sourcePoint%22%2F%3E%3CmxPoint%20x%3D%22460%22%20y%3D%22320%22%20as%3D%22targetPoint%22%2F%3E%3C%2FmxGeometry%3E%3C%2FmxCell%3E%3C%2Froot%3E%3C%2FmxGraphModel%3&lt;/span&gt;" style="text;html=1;strokeColor=none;fillColor=none;align=left;verticalAlign=middle;whiteSpace=wrap;rounded=0;fontColor=#000000;" parent="1" vertex="1">
          <mxGeometry x="503.5" y="1398" width="190.5" height="30" as="geometry" />
        </mxCell>
        <mxCell id="rTVSocvL9p-6lFkc4zfE-81" value="" style="endArrow=classic;html=1;rounded=0;fontColor=#000000;entryX=0;entryY=0.5;entryDx=0;entryDy=0;entryPerimeter=0;" parent="1" edge="1">
          <mxGeometry width="50" height="50" relative="1" as="geometry">
            <mxPoint x="430" y="1348" as="sourcePoint" />
            <mxPoint x="554" y="1348" as="targetPoint" />
          </mxGeometry>
        </mxCell>
        <mxCell id="rTVSocvL9p-6lFkc4zfE-82" value="" style="endArrow=classic;html=1;rounded=0;fontColor=#000000;exitX=0.5;exitY=1;exitDx=0;exitDy=0;" parent="1" edge="1">
          <mxGeometry width="50" height="50" relative="1" as="geometry">
            <mxPoint x="362.5" y="1388" as="sourcePoint" />
            <mxPoint x="362.5" y="1438" as="targetPoint" />
          </mxGeometry>
        </mxCell>
        <mxCell id="rTVSocvL9p-6lFkc4zfE-84" value="build templated email request" style="rounded=0;whiteSpace=wrap;html=1;fillColor=#dae8fc;strokeColor=#6c8ebf;" parent="1" vertex="1">
          <mxGeometry x="424.25" y="1128" width="100" height="50" as="geometry" />
        </mxCell>
        <mxCell id="rTVSocvL9p-6lFkc4zfE-87" value="" style="endArrow=classic;html=1;rounded=0;fontColor=#000000;exitX=0.5;exitY=1;exitDx=0;exitDy=0;" parent="1" edge="1">
          <mxGeometry width="50" height="50" relative="1" as="geometry">
            <mxPoint x="472.25" y="1095" as="sourcePoint" />
            <mxPoint x="472.75" y="1128" as="targetPoint" />
          </mxGeometry>
        </mxCell>
        <mxCell id="rTVSocvL9p-6lFkc4zfE-88" value="" style="endArrow=classic;html=1;rounded=0;fontColor=#000000;exitX=0.5;exitY=1;exitDx=0;exitDy=0;entryX=1;entryY=0.5;entryDx=0;entryDy=0;" parent="1" target="rTVSocvL9p-6lFkc4zfE-72" edge="1">
          <mxGeometry width="50" height="50" relative="1" as="geometry">
            <mxPoint x="472.25" y="1178" as="sourcePoint" />
            <mxPoint x="472.25" y="1228" as="targetPoint" />
            <Array as="points">
              <mxPoint x="472.75" y="1233" />
            </Array>
          </mxGeometry>
        </mxCell>
        <mxCell id="rTVSocvL9p-6lFkc4zfE-89" value="" style="endArrow=classic;html=1;rounded=0;fontColor=#000000;exitX=0.5;exitY=1;exitDx=0;exitDy=0;" parent="1" edge="1">
          <mxGeometry width="50" height="50" relative="1" as="geometry">
            <mxPoint x="243" y="1098" as="sourcePoint" />
            <mxPoint x="292.75" y="1228" as="targetPoint" />
            <Array as="points">
              <mxPoint x="242.75" y="1228" />
            </Array>
          </mxGeometry>
        </mxCell>
        <mxCell id="rTVSocvL9p-6lFkc4zfE-90" value="&lt;font style=&quot;font-size: 10px;&quot;&gt;Yes&lt;/font&gt;" style="text;html=1;align=center;verticalAlign=middle;resizable=0;points=[];autosize=1;strokeColor=none;fillColor=none;fontColor=#000000;" parent="1" vertex="1">
          <mxGeometry x="355" y="820" width="40" height="30" as="geometry" />
        </mxCell>
        <mxCell id="rTVSocvL9p-6lFkc4zfE-92" value="" style="endArrow=classic;html=1;rounded=0;fontColor=#000000;exitX=0.5;exitY=1;exitDx=0;exitDy=0;" parent="1" edge="1">
          <mxGeometry width="50" height="50" relative="1" as="geometry">
            <mxPoint x="360" y="235" as="sourcePoint" />
            <mxPoint x="360" y="285" as="targetPoint" />
          </mxGeometry>
        </mxCell>
        <mxCell id="THyM31BviyddxjdKC316-1" value="&lt;font style=&quot;font-size: 8px;&quot;&gt;Async operation&lt;/font&gt;" style="text;html=1;strokeColor=none;fillColor=none;align=center;verticalAlign=middle;whiteSpace=wrap;rounded=0;" parent="1" vertex="1">
          <mxGeometry x="337.25" y="370" width="60" height="30" as="geometry" />
        </mxCell>
        <mxCell id="THyM31BviyddxjdKC316-3" value="" style="endArrow=classic;html=1;rounded=0;fontColor=#000000;exitX=0;exitY=0.5;exitDx=0;exitDy=0;" parent="1" edge="1">
          <mxGeometry width="50" height="50" relative="1" as="geometry">
            <mxPoint x="311" y="760" as="sourcePoint" />
            <mxPoint x="-60" y="710" as="targetPoint" />
            <Array as="points">
              <mxPoint y="760" />
              <mxPoint y="710" />
            </Array>
          </mxGeometry>
        </mxCell>
        <mxCell id="THyM31BviyddxjdKC316-4" value="&lt;font style=&quot;font-size: 10px;&quot;&gt;No&lt;/font&gt;" style="text;html=1;align=center;verticalAlign=middle;resizable=0;points=[];autosize=1;strokeColor=none;fillColor=none;fontColor=#000000;" parent="1" vertex="1">
          <mxGeometry x="180.75" y="737" width="40" height="30" as="geometry" />
        </mxCell>
        <mxCell id="THyM31BviyddxjdKC316-5" value="&lt;font style=&quot;font-size: 10px;&quot;&gt;Email&lt;br&gt;Provider&lt;br&gt;Mappings&lt;br&gt;DTO != null&lt;/font&gt;" style="rhombus;whiteSpace=wrap;html=1;fillColor=#ffe6cc;strokeColor=#d79b00;" parent="1" vertex="1">
          <mxGeometry x="311.5" y="712" width="97" height="97" as="geometry" />
        </mxCell>
        <mxCell id="THyM31BviyddxjdKC316-6" value="" style="endArrow=classic;html=1;rounded=0;fontColor=#000000;exitX=0.5;exitY=1;exitDx=0;exitDy=0;" parent="1" edge="1">
          <mxGeometry width="50" height="50" relative="1" as="geometry">
            <mxPoint x="360.5" y="808" as="sourcePoint" />
            <mxPoint x="360.5" y="858" as="targetPoint" />
          </mxGeometry>
        </mxCell>
        <mxCell id="THyM31BviyddxjdKC316-7" value="&lt;font style=&quot;font-size: 10px;&quot;&gt;Sent Email&lt;/font&gt;" style="shape=parallelogram;perimeter=parallelogramPerimeter;whiteSpace=wrap;html=1;fixedSize=1;fontSize=8;fillColor=#b1ddf0;strokeColor=#10739e;" parent="1" vertex="1">
          <mxGeometry x="319.5" y="1440" width="80" height="20" as="geometry" />
        </mxCell>
        <mxCell id="THyM31BviyddxjdKC316-9" value="" style="endArrow=classic;html=1;rounded=0;fontColor=#000000;exitX=0.5;exitY=1;exitDx=0;exitDy=0;" parent="1" target="rTVSocvL9p-6lFkc4zfE-73" edge="1">
          <mxGeometry width="50" height="50" relative="1" as="geometry">
            <mxPoint x="360.5" y="1460" as="sourcePoint" />
            <mxPoint x="360" y="1500" as="targetPoint" />
          </mxGeometry>
        </mxCell>
        <mxCell id="THyM31BviyddxjdKC316-10" value="" style="rounded=1;whiteSpace=wrap;html=1;fillColor=#e1d5e7;strokeColor=#9673a6;" parent="1" vertex="1">
          <mxGeometry x="666.5" y="1583" width="69.5" height="30" as="geometry" />
        </mxCell>
        <mxCell id="THyM31BviyddxjdKC316-11" value="" style="rounded=0;whiteSpace=wrap;html=1;fillColor=#dae8fc;strokeColor=#6c8ebf;" parent="1" vertex="1">
          <mxGeometry x="666.5" y="1643" width="70" height="30" as="geometry" />
        </mxCell>
        <mxCell id="THyM31BviyddxjdKC316-12" value="" style="shape=cylinder3;whiteSpace=wrap;html=1;boundedLbl=1;backgroundOutline=1;size=15;fillColor=#d5e8d4;strokeColor=#82b366;" parent="1" vertex="1">
          <mxGeometry x="673.5" y="1693" width="59.5" height="46" as="geometry" />
        </mxCell>
        <mxCell id="THyM31BviyddxjdKC316-13" value="" style="rhombus;whiteSpace=wrap;html=1;fillColor=#ffe6cc;strokeColor=#d79b00;" parent="1" vertex="1">
          <mxGeometry x="671" y="1753" width="60" height="60" as="geometry" />
        </mxCell>
        <mxCell id="THyM31BviyddxjdKC316-14" value="" style="endArrow=classic;html=1;rounded=0;fontColor=#000000;" parent="1" edge="1">
          <mxGeometry width="50" height="50" relative="1" as="geometry">
            <mxPoint x="736.5" y="1596" as="sourcePoint" />
            <mxPoint x="786.5" y="1596" as="targetPoint" />
          </mxGeometry>
        </mxCell>
        <mxCell id="THyM31BviyddxjdKC316-15" value="" style="endArrow=classic;html=1;rounded=0;fontColor=#000000;" parent="1" edge="1">
          <mxGeometry width="50" height="50" relative="1" as="geometry">
            <mxPoint x="735.5" y="1656" as="sourcePoint" />
            <mxPoint x="785.5" y="1656" as="targetPoint" />
          </mxGeometry>
        </mxCell>
        <mxCell id="THyM31BviyddxjdKC316-16" value="" style="endArrow=classic;html=1;rounded=0;fontColor=#000000;" parent="1" edge="1">
          <mxGeometry width="50" height="50" relative="1" as="geometry">
            <mxPoint x="734" y="1716" as="sourcePoint" />
            <mxPoint x="784" y="1716" as="targetPoint" />
          </mxGeometry>
        </mxCell>
        <mxCell id="THyM31BviyddxjdKC316-17" value="" style="endArrow=classic;html=1;rounded=0;fontColor=#000000;" parent="1" edge="1">
          <mxGeometry width="50" height="50" relative="1" as="geometry">
            <mxPoint x="731" y="1784" as="sourcePoint" />
            <mxPoint x="781" y="1784" as="targetPoint" />
          </mxGeometry>
        </mxCell>
        <mxCell id="THyM31BviyddxjdKC316-18" value="Service &amp;nbsp;Entry/Exit" style="text;html=1;strokeColor=none;fillColor=none;align=center;verticalAlign=middle;whiteSpace=wrap;rounded=0;fontSize=10;" parent="1" vertex="1">
          <mxGeometry x="784.5" y="1580" width="90" height="30" as="geometry" />
        </mxCell>
        <mxCell id="THyM31BviyddxjdKC316-19" value="Function&amp;nbsp;processing" style="text;html=1;strokeColor=none;fillColor=none;align=center;verticalAlign=middle;whiteSpace=wrap;rounded=0;fontSize=10;" parent="1" vertex="1">
          <mxGeometry x="766.5" y="1640" width="134" height="30" as="geometry" />
        </mxCell>
        <mxCell id="THyM31BviyddxjdKC316-20" value="Database operation" style="text;html=1;strokeColor=none;fillColor=none;align=center;verticalAlign=middle;whiteSpace=wrap;rounded=0;fontSize=10;" parent="1" vertex="1">
          <mxGeometry x="763.5" y="1701" width="134" height="30" as="geometry" />
        </mxCell>
        <mxCell id="THyM31BviyddxjdKC316-21" value="" style="shape=trapezoid;perimeter=trapezoidPerimeter;whiteSpace=wrap;html=1;fixedSize=1;fillColor=#f8cecc;strokeColor=#b85450;" parent="1" vertex="1">
          <mxGeometry x="666.5" y="1823" width="76.5" height="30" as="geometry" />
        </mxCell>
        <mxCell id="THyM31BviyddxjdKC316-22" value="" style="endArrow=classic;html=1;rounded=0;fontColor=#000000;" parent="1" edge="1">
          <mxGeometry width="50" height="50" relative="1" as="geometry">
            <mxPoint x="729.5" y="1833" as="sourcePoint" />
            <mxPoint x="779.5" y="1833" as="targetPoint" />
          </mxGeometry>
        </mxCell>
        <mxCell id="THyM31BviyddxjdKC316-23" value="Decision&amp;nbsp;&lt;span style=&quot;caret-color: rgba(0, 0, 0, 0); color: rgba(0, 0, 0, 0); font-family: monospace; font-size: 0px; text-align: start;&quot;&gt;CmxGraphModel%3E%3Croot%3E%3CmxCell%20id%3D%220%22%2F%3E%3CmxCell%20id%3D%221%22%20parent%3D%220%22%2F%3E%3CmxCell%20id%3D%222%22%20value%3D%22Database%20operation%22%20style%3D%22text%3Bhtml%3D1%3BstrokeColor%3Dnone%3BfillColor%3Dnone%3Balign%3Dcenter%3BverticalAlign%3Dmiddle%3BwhiteSpace%3Dwrap%3Brounded%3D0%3BfontSize%3D10%3B%22%20vertex%3D%221%22%20parent%3D%221%22%3E%3CmxGeometry%20x%3D%22698%22%20y%3D%221738%22%20width%3D%22134%22%20height%3D%2230%22%20as%3D%22geometry%22%2F%3E%3C%2FmxCell%3E%3C%2Froot%3E%3C%2FmxGraphModel%3E &amp;nbsp;&lt;/span&gt;Making" style="text;html=1;strokeColor=none;fillColor=none;align=center;verticalAlign=middle;whiteSpace=wrap;rounded=0;fontSize=10;" parent="1" vertex="1">
          <mxGeometry x="754.5" y="1768" width="134" height="30" as="geometry" />
        </mxCell>
        <mxCell id="THyM31BviyddxjdKC316-24" value="Cacheing operation" style="text;html=1;strokeColor=none;fillColor=none;align=center;verticalAlign=middle;whiteSpace=wrap;rounded=0;fontSize=10;" parent="1" vertex="1">
          <mxGeometry x="761.5" y="1816" width="134" height="30" as="geometry" />
        </mxCell>
        <mxCell id="iOdNaE5h2Jg4Ozsjyr-C-9" value="success" style="rhombus;whiteSpace=wrap;html=1;fillColor=#ffe6cc;strokeColor=#d79b00;" parent="1" vertex="1">
          <mxGeometry x="321" y="1490" width="80" height="80" as="geometry" />
        </mxCell>
        <mxCell id="iOdNaE5h2Jg4Ozsjyr-C-10" value="&lt;font style=&quot;font-size: 10px;&quot;&gt;No&lt;/font&gt;" style="text;html=1;align=center;verticalAlign=middle;resizable=0;points=[];autosize=1;strokeColor=none;fillColor=none;fontColor=#000000;" parent="1" vertex="1">
          <mxGeometry x="420" y="1507" width="40" height="30" as="geometry" />
        </mxCell>
        <mxCell id="iOdNaE5h2Jg4Ozsjyr-C-11" value="&lt;pre style=&quot;text-align: start; font-family: &amp;quot;JetBrains Mono&amp;quot;, monospace;&quot;&gt;fallBackProvider&lt;/pre&gt;" style="rounded=0;whiteSpace=wrap;html=1;fillColor=#dae8fc;strokeColor=#6c8ebf;" parent="1" vertex="1">
          <mxGeometry x="80" y="1512.5" width="120" height="35" as="geometry" />
        </mxCell>
        <mxCell id="iOdNaE5h2Jg4Ozsjyr-C-12" value="Chose another available provider" style="text;html=1;strokeColor=none;fillColor=none;align=center;verticalAlign=middle;whiteSpace=wrap;rounded=0;labelBackgroundColor=none;fontSize=10;fontColor=#000000;" parent="1" vertex="1">
          <mxGeometry x="20" y="1517.5" width="60" height="30" as="geometry" />
        </mxCell>
        <mxCell id="iOdNaE5h2Jg4Ozsjyr-C-14" value="&lt;font style=&quot;font-size: 11px;&quot;&gt;Provider available&lt;/font&gt;" style="rhombus;whiteSpace=wrap;html=1;fillColor=#ffe6cc;strokeColor=#d79b00;" parent="1" vertex="1">
          <mxGeometry x="99.75" y="540" width="80" height="80" as="geometry" />
        </mxCell>
        <mxCell id="iOdNaE5h2Jg4Ozsjyr-C-16" value="&lt;font style=&quot;font-size: 10px;&quot;&gt;Yes&lt;/font&gt;" style="text;html=1;align=center;verticalAlign=middle;resizable=0;points=[];autosize=1;strokeColor=none;fillColor=none;fontColor=#000000;" parent="1" vertex="1">
          <mxGeometry x="353.25" y="1570" width="40" height="30" as="geometry" />
        </mxCell>
        <mxCell id="iOdNaE5h2Jg4Ozsjyr-C-17" value="&lt;font style=&quot;font-size: 10px;&quot;&gt;Yes&lt;/font&gt;" style="text;html=1;align=center;verticalAlign=middle;resizable=0;points=[];autosize=1;strokeColor=none;fillColor=none;fontColor=#000000;" parent="1" vertex="1">
          <mxGeometry x="220.75" y="558" width="40" height="30" as="geometry" />
        </mxCell>
        <mxCell id="iOdNaE5h2Jg4Ozsjyr-C-19" value="" style="endArrow=classic;html=1;rounded=0;fontColor=#000000;exitX=0;exitY=0.5;exitDx=0;exitDy=0;entryX=0.5;entryY=0;entryDx=0;entryDy=0;" parent="1" source="iOdNaE5h2Jg4Ozsjyr-C-14" target="rTVSocvL9p-6lFkc4zfE-54" edge="1">
          <mxGeometry width="50" height="50" relative="1" as="geometry">
            <mxPoint x="-91.25" y="576.5" as="sourcePoint" />
            <mxPoint x="20" y="500" as="targetPoint" />
            <Array as="points">
              <mxPoint x="-125" y="580" />
            </Array>
          </mxGeometry>
        </mxCell>
        <mxCell id="iOdNaE5h2Jg4Ozsjyr-C-20" value="&lt;font style=&quot;font-size: 10px;&quot;&gt;No&lt;/font&gt;" style="text;html=1;align=center;verticalAlign=middle;resizable=0;points=[];autosize=1;strokeColor=none;fillColor=none;fontColor=#000000;" parent="1" vertex="1">
          <mxGeometry x="-71.25" y="555" width="40" height="30" as="geometry" />
        </mxCell>
        <mxCell id="TEpofnCCsWP6tBPTdoD_-1" value="" style="endArrow=classic;html=1;rounded=0;fontColor=#000000;" edge="1" parent="1">
          <mxGeometry width="50" height="50" relative="1" as="geometry">
            <mxPoint x="680" y="660" as="sourcePoint" />
            <mxPoint x="679.5" y="820" as="targetPoint" />
          </mxGeometry>
        </mxCell>
        <mxCell id="TEpofnCCsWP6tBPTdoD_-2" value="" style="endArrow=classic;html=1;rounded=0;fontColor=#000000;exitX=0;exitY=0.5;exitDx=0;exitDy=0;entryX=1.04;entryY=0.879;entryDx=0;entryDy=0;entryPerimeter=0;" edge="1" parent="1" target="rTVSocvL9p-6lFkc4zfE-30">
          <mxGeometry width="50" height="50" relative="1" as="geometry">
            <mxPoint x="640" y="860" as="sourcePoint" />
            <mxPoint x="420" y="660" as="targetPoint" />
            <Array as="points">
              <mxPoint x="520" y="860" />
              <mxPoint x="520" y="660" />
            </Array>
          </mxGeometry>
        </mxCell>
        <mxCell id="TEpofnCCsWP6tBPTdoD_-3" value="Get EmailProviderDetails" style="shape=cylinder3;whiteSpace=wrap;html=1;boundedLbl=1;backgroundOutline=1;size=15;fillColor=#d5e8d4;strokeColor=#82b366;" vertex="1" parent="1">
          <mxGeometry x="850" y="820" width="120" height="80" as="geometry" />
        </mxCell>
        <mxCell id="TEpofnCCsWP6tBPTdoD_-4" value="" style="endArrow=classic;html=1;rounded=0;fontColor=#000000;entryX=0;entryY=0.5;entryDx=0;entryDy=0;entryPerimeter=0;exitX=1;exitY=0.5;exitDx=0;exitDy=0;" edge="1" parent="1" target="TEpofnCCsWP6tBPTdoD_-3">
          <mxGeometry width="50" height="50" relative="1" as="geometry">
            <mxPoint x="720" y="859" as="sourcePoint" />
            <mxPoint x="780" y="859" as="targetPoint" />
          </mxGeometry>
        </mxCell>
        <mxCell id="TEpofnCCsWP6tBPTdoD_-7" value="Collection:&amp;nbsp;&lt;font color=&quot;#ea6b66&quot;&gt;&lt;span style=&quot;caret-color: rgb(234, 107, 102);&quot;&gt;email_provider_details&lt;/span&gt;&lt;/font&gt;&lt;br&gt;Operation:&amp;nbsp;&lt;span style=&quot;caret-color: rgb(234, 107, 102); color: rgb(0, 204, 0); font-size: 10px;&quot;&gt;Read&lt;/span&gt;&lt;span style=&quot;caret-color: rgba(0, 0, 0, 0); color: rgba(0, 0, 0, 0); font-family: monospace; font-size: 0px;&quot;&gt;%3CmxGraphModel%3E%3Croot%3E%3CmxCell%20id%3D%220%22%2F%3E%3CmxCell%20id%3D%221%22%20parent%3D%220%22%2F%3E%3CmxCell%20id%3D%222%22%20value%3D%22%22%20style%3D%22endArrow%3Dclassic%3Bhtml%3D1%3Brounded%3D0%3BfontColor%3D%23000000%3BentryX%3D0%3BentryY%3D0.5%3BentryDx%3D0%3BentryDy%3D0%3BentryPerimeter%3D0%3BexitX%3D1%3BexitY%3D0.5%3BexitDx%3D0%3BexitDy%3D0%3B%22%20edge%3D%221%22%20parent%3D%221%22%3E%3CmxGeometry%20width%3D%2250%22%20height%3D%2250%22%20relative%3D%221%22%20as%3D%22geometry%22%3E%3CmxPoint%20x%3D%22400%22%20y%3D%22320%22%20as%3D%22sourcePoint%22%2F%3E%3CmxPoint%20x%3D%22460%22%20y%3D%22320%22%20as%3D%22targetPoint%22%2F%3E%3C%2FmxGeometry%3E%3C%2FmxCell%3E%3C%2Froot%3E%3C%2FmxGraphModel%3&lt;/span&gt;" style="text;html=1;strokeColor=none;fillColor=none;align=left;verticalAlign=middle;whiteSpace=wrap;rounded=0;fontColor=#000000;" vertex="1" parent="1">
          <mxGeometry x="820" y="905" width="190.5" height="30" as="geometry" />
        </mxCell>
        <mxCell id="TEpofnCCsWP6tBPTdoD_-9" value="" style="endArrow=classic;html=1;rounded=0;fontColor=#000000;exitX=0.5;exitY=0;exitDx=0;exitDy=0;exitPerimeter=0;" edge="1" parent="1" source="TEpofnCCsWP6tBPTdoD_-3">
          <mxGeometry width="50" height="50" relative="1" as="geometry">
            <mxPoint x="784.5" y="551" as="sourcePoint" />
            <mxPoint x="520" y="760" as="targetPoint" />
            <Array as="points">
              <mxPoint x="910" y="760" />
            </Array>
          </mxGeometry>
        </mxCell>
        <mxCell id="TEpofnCCsWP6tBPTdoD_-10" value="" style="endArrow=classic;html=1;rounded=0;fontColor=#000000;entryX=1;entryY=0.5;entryDx=0;entryDy=0;" edge="1" parent="1" target="rTVSocvL9p-6lFkc4zfE-34">
          <mxGeometry width="50" height="50" relative="1" as="geometry">
            <mxPoint x="910" y="760" as="sourcePoint" />
            <mxPoint x="530" y="770" as="targetPoint" />
            <Array as="points">
              <mxPoint x="910" y="638" />
            </Array>
          </mxGeometry>
        </mxCell>
        <mxCell id="TEpofnCCsWP6tBPTdoD_-11" value="&lt;div style=&quot;text-align: left;&quot;&gt;&lt;font style=&quot;font-size: 10px;&quot;&gt;&lt;font color=&quot;#000000&quot;&gt;Key&lt;/font&gt;: &amp;nbsp;CENTRAL_EMAIL_MAPPING&lt;/font&gt;&lt;/div&gt;" style="text;html=1;strokeColor=none;fillColor=none;align=center;verticalAlign=middle;whiteSpace=wrap;rounded=0;fontColor=#EA6B66;" vertex="1" parent="1">
          <mxGeometry x="700" y="612" width="210.75" height="30" as="geometry" />
        </mxCell>
      </root>
    </mxGraphModel>
  </diagram>
</mxfile>
